<svg id="Capa_1" enable-background="new 0 0 512 512" height="512" viewBox="0 0 512 512" width="512" xmlns="http://www.w3.org/2000/svg"><g><path d="m405.966 113.504c-17.55-69-78.636-113.484-149.966-113.504l-8.191 14.574 8.191 15.406c52.474.018 98.762 32.291 117.264 80.154 1.853 4.795 2.672 10.079 2.672 10.079h25.47z" fill="#04303e"/><path d="m106.034 113.504c17.55-69 78.636-113.484 149.966-113.504v29.98c-52.474.018-98.762 32.291-117.264 80.154-1.853 4.795-2.672 10.079-2.672 10.079h-25.47z" fill="#07485e"/><path d="m158.998 212.317h-43.352c-8.503 0-15.396-6.893-15.396-15.396v-71.391c0-8.503 6.893-15.396 15.396-15.396h43.352c8.503 0 15.396 6.893 15.396 15.396l14.649 9.811v59.362l-14.649 2.219c0 8.502-6.893 15.395-15.396 15.395z" fill="#0fa8dc"/><path d="m368.406 305.85h-.304v-30h.304c6.497 0 13.215 0 13.215-28.215v-35.318l5.534-13.354h24.466v48.672c0 16.818-2.113 28.378-6.852 37.483-4.922 9.457-15.227 20.732-36.363 20.732z" fill="#04303e"/><path d="m353.002 212.317h43.352c8.503 0 15.396-6.893 15.396-15.396v-71.391c0-8.503-6.893-15.396-15.396-15.396h-43.352c-8.503 0-15.396 6.893-15.396 15.396l-15.415 9.909v51.319l15.415 10.164c0 8.502 6.893 15.395 15.396 15.395z" fill="#0d90bc"/><g><path d="m311.29 367.99-45.69 41.31-9.6-9.37-24.447-60.59 24.447-45.38 8.298-12.75h33.722l5.67 6.71v63.47z" fill="#df9280"/><path d="m200.71 367.99 45.69 41.31 9.6-9.37v-105.97l-8.298-12.75h-33.722l-5.67 6.71v63.47z" fill="#f9a58d"/></g><g><path d="m337.6 123.63v110.16c0 23.74-13.77 44.29-33.75 54.06-.06.02-.11.05-.16.07-7.93 3.87-16.83 6.02-26.47 6.04h-21.22l-32.11-100.66 32.11-67.33 16.91-21.91 51.32-7.4 8.39 2.83c.87 2.07 1.65 4.22 2.33 6.43 1.72 5.6 2.65 11.55 2.65 17.71z" fill="#ffbda9"/><path d="m174.4 123.63v110.16c0 23.74 13.77 44.29 33.75 54.06.06.02.11.05.16.07 7.93 3.87 16.83 6.02 26.47 6.04h21.22v-167.99l-16.91-21.91-51.32-7.4-8.39 2.83c-.87 2.07-1.65 4.22-2.33 6.43-1.72 5.6-2.65 11.55-2.65 17.71z" fill="#ffccbd"/></g><g><path d="m303.69 351.39h28.34c99.39 0 179.97 71.9 179.97 160.61h-256l-32.106-51.128 32.106-60.942c26 0 47.72-22.556 47.689-48.54z" fill="#0d90bc"/><path d="m208.31 351.39c0 25.99 21.7 48.54 47.69 48.54v112.07h-256c0-95.32 90.46-160.61 179.97-160.61z" fill="#0fa8dc"/></g><g><g><path d="m110.77 419.389h59.244v30h-59.244z" fill="#f5f5f8"/></g></g><g><path d="m332.62 99.49c-20 16.45-46.9 26.45-76.62 26.48l-17.553-32.757 17.553-29.733h21.45c26.25 0 45.95 14.01 55.17 36.01z" fill="#04303e"/><path d="m256 63.48v62.49c-29.86 0-56.51-9.64-76.55-26.19 9.23-21.36 30.48-36.3 55.23-36.3z" fill="#07485e"/></g></g></svg>